<?xml version="1.0" encoding="UTF-8"?>
<svg version="1.1" xmlns="http://www.w3.org/2000/svg" width="2150" height="847">
<path d="M0 0 C1.63736469 0.00028275 3.2747295 0.00012243 4.91209412 -0.0004425 C9.31615386 -0.00072707 13.72018586 0.00511413 18.12423921 0.01213145 C22.74197893 0.01842215 27.35971942 0.01897328 31.97746277 0.02015686 C40.70353025 0.02325342 49.42958506 0.03144405 58.15564698 0.04150635 C68.09771644 0.05271974 78.03978654 0.05819106 87.98186076 0.06320179 C108.41654377 0.07362822 128.85121542 0.09119495 149.28588867 0.11352539 C147.42481048 4.11828199 144.7926555 7.05166209 141.78588867 10.23852539 C141.2519751 10.81111084 140.71806152 11.38369629 140.16796875 11.97363281 C136.04762305 16.36813786 131.79909389 20.62350373 127.51245117 24.85571289 C125.53419088 26.86173824 123.67747818 28.90986374 121.84838867 31.05102539 C118.54647766 34.91496381 114.96342429 38.46557585 111.34838867 42.03149414 C108.00668247 45.34542993 104.85662166 48.76506152 101.82104492 52.35961914 C101.06114258 53.22780273 101.06114258 53.22780273 100.28588867 54.11352539 C99.40537606 55.14256359 99.40537606 55.14256359 98.50707531 56.19239044 C95.83202297 58.5060801 94.69744959 58.6115063 91.21174622 58.60559082 C89.67531715 58.61778908 89.67531715 58.61778908 88.10784912 58.63023376 C86.98944641 58.61891922 85.8710437 58.60760468 84.71875 58.59594727 C83.53603012 58.59985977 82.35331024 58.60377228 81.13475037 58.60780334 C77.88993994 58.61535137 74.6457025 58.60551139 71.40094209 58.58930397 C67.98955416 58.57751009 64.57828799 58.59145451 61.16691589 58.6036377 C51.74360654 58.63265837 42.32041939 58.62201074 32.8970871 58.61093903 C24.29223821 58.60122029 15.6876104 58.6002715 7.08279818 58.6308198 C3.69682888 58.64189597 0.31128623 58.64480041 -3.07466698 58.62767029 C-20.67055581 58.55028622 -37.49697543 58.7300727 -53.58911133 66.80102539 C-54.63905273 67.31584473 -54.63905273 67.31584473 -55.71020508 67.84106445 C-70.33397468 75.29433929 -80.32516258 86.75282526 -85.83911133 102.20336914 C-89.31301883 113.75721328 -89.04508113 126.70793602 -83.46020508 137.54711914 C-76.23675394 149.21879904 -65.54834063 155.09585241 -52.55004883 158.53540039 C-45.90420059 159.89020141 -39.39512222 160.27042923 -32.63598633 160.31884766 C-31.76675034 160.32874725 -30.89751434 160.33864685 -30.00193787 160.34884644 C-27.15602249 160.38019379 -24.31009047 160.40511193 -21.46411133 160.42993164 C-19.48013905 160.45052434 -17.49617094 160.47152139 -15.51220703 160.49290466 C-10.31076442 160.54788627 -5.10928379 160.59740022 0.09222412 160.64575195 C5.40811514 160.69614243 10.72395151 160.75173658 16.03979492 160.80688477 C26.45511438 160.91417354 36.87048072 161.01520121 47.28588867 161.11352539 C48.93588867 151.54352539 50.58588867 141.97352539 52.28588867 132.11352539 C15.65588867 131.78352539 -20.97411133 131.45352539 -58.71411133 131.11352539 C-56.95904064 127.60338401 -55.76271839 125.91337677 -53.078125 123.23461914 C-51.96137642 122.11325562 -51.96137642 122.11325562 -50.82206726 120.96923828 C-50.01687149 120.17122803 -49.21167572 119.37321777 -48.38208008 118.55102539 C-47.55331863 117.72272217 -46.72455719 116.89441895 -45.87068176 116.04101562 C-44.11699875 114.29035277 -42.36088687 112.5421201 -40.60253906 110.79614258 C-37.9171834 108.1289919 -35.23986458 105.45397803 -32.5637207 102.77758789 C-30.85781069 101.07659537 -29.15144535 99.37605935 -27.44458008 97.67602539 C-26.645457 96.87801514 -25.84633392 96.08000488 -25.022995 95.2578125 C-21.3870605 91.65264471 -17.76023175 88.26115524 -13.71411133 85.11352539 C-13.12740536 84.42807774 -12.54069939 83.74263008 -11.93621445 83.03641129 C-9.10039642 80.58245024 -7.66830217 80.61910593 -3.95611572 80.63250732 C-2.78104965 80.62700867 -1.60598358 80.62151001 -0.39530945 80.61584473 C1.53274788 80.63741638 1.53274788 80.63741638 3.49975586 80.65942383 C4.86978624 80.66055237 6.23981905 80.65991831 7.60984802 80.65765381 C11.32664682 80.65650598 15.04292945 80.68002588 18.75960827 80.70794964 C22.64466422 80.73295206 26.52973196 80.73530437 30.41485596 80.74005127 C37.7707333 80.7524845 45.1263729 80.78531066 52.48214555 80.82544923 C60.85689422 80.87015625 69.23165423 80.89215126 77.60649252 80.91223097 C94.83309543 80.9540431 112.05946691 81.02440175 129.28588867 81.11352539 C128.66495783 88.65530266 127.51603922 96.03317885 126.16870117 103.47631836 C125.95558289 104.67104263 125.7424646 105.86576691 125.52288818 107.09669495 C124.94305344 110.34264614 124.35984541 113.58796793 123.77498627 116.83301687 C123.16160074 120.24059899 122.55238049 123.64892589 121.94262695 127.05715942 C120.91964147 132.77172356 119.89378389 138.48576589 118.8659668 144.19946289 C117.67849685 150.80076536 116.49463245 157.40270602 115.31289101 164.00503623 C114.05179653 171.05069927 112.78859555 178.09598323 111.52449799 185.14110804 C111.16121114 187.16641513 110.79826113 189.19178236 110.43536377 191.21715927 C109.75965044 194.9874485 109.08151417 198.75729967 108.40307617 202.52709961 C108.20252625 203.6471489 108.00197632 204.76719818 107.79534912 205.92118835 C107.61030823 206.94717636 107.42526733 207.97316437 107.23461914 209.03024292 C107.07460419 209.92061186 106.91458923 210.8109808 106.74972534 211.72833061 C106.33119719 213.88053468 105.84137739 215.9930657 105.28588867 218.11352539 C84.84847586 218.16040197 64.41107407 218.19559056 43.97361851 218.21714973 C34.48255673 218.22742944 24.99152851 218.24142598 15.50048828 218.2644043 C7.22086959 218.28444002 -1.05872478 218.2972658 -9.33836704 218.30170238 C-13.71579156 218.30429265 -18.09314656 218.31031062 -22.47054863 218.3249855 C-26.60487495 218.33873099 -30.73910423 218.34271442 -34.87345123 218.33974075 C-36.37728214 218.34028344 -37.88111686 218.34415855 -39.38492775 218.35193634 C-53.14396136 218.41950646 -67.03127459 217.61386046 -80.33911133 213.86352539 C-81.51884521 213.53928589 -81.51884521 213.53928589 -82.72241211 213.20849609 C-109.00587915 205.75096777 -131.34056233 190.62648197 -145.71411133 167.11352539 C-157.69059396 145.10341176 -160.66746109 118.31333255 -153.96801758 94.10961914 C-153.56038051 92.77438989 -153.14256411 91.4422215 -152.71411133 90.11352539 C-152.40062744 89.14116943 -152.40062744 89.14116943 -152.08081055 88.14916992 C-141.28811581 56.06212466 -115.72994104 32.28893058 -86.1574707 17.29077148 C-59.04116114 4.22573904 -29.82404959 -0.07301475 0 0 Z " fill="#5D7885" transform="translate(1387.714111328125,318.886474609375)"/>
<path d="M0 0 C0.82781982 -0.01047363 1.65563965 -0.02094727 2.50854492 -0.03173828 C13.28091016 0.12533406 21.82724427 4.09674917 29.77734375 11.265625 C40.81974762 22.72348565 47.03325484 38.79143439 53.99438477 52.91088867 C57.83544818 60.69097926 61.80712973 68.39132673 65.86419678 76.0610199 C70.19002013 84.24677487 74.41003582 92.48521972 78.61962891 100.73120117 C80.91433105 105.22580765 83.21296325 109.71840308 85.51171875 114.2109375 C85.96622406 115.09928284 86.42072937 115.98762817 86.88900757 116.90289307 C90.654507 124.25898723 94.44577997 131.60135977 98.25 138.9375 C104.79108213 151.55303001 111.2698589 164.20005537 117.73764038 176.853302 C122.12270414 185.43187748 126.50894193 194.00905733 130.98046875 202.54296875 C131.29415405 203.14225189 131.60783936 203.74153503 131.93103027 204.35897827 C133.34673972 207.06181256 134.76743621 209.76183624 136.19580078 212.45800781 C136.91292236 213.8226416 136.91292236 213.8226416 137.64453125 215.21484375 C138.05550049 215.99077881 138.46646973 216.76671387 138.88989258 217.56616211 C139.75 219.4375 139.75 219.4375 139.75 221.4375 C56.26 221.4375 -27.23 221.4375 -113.25 221.4375 C-111.47143058 217.88036117 -110.33476818 216.32360569 -107.5625 213.6875 C-104.2734113 210.48093324 -101.21773144 207.17478481 -98.22265625 203.6953125 C-95.81798564 200.94303604 -93.35011817 198.25120274 -90.875 195.5625 C-86.74886596 191.07808992 -82.65712261 186.56533843 -78.58984375 182.02734375 C-76.84200561 180.09275829 -75.08513797 178.16922112 -73.31640625 176.25390625 C-72.81753906 175.71314453 -72.31867188 175.17238281 -71.8046875 174.61523438 C-70.83121893 173.56149287 -69.85603574 172.50933202 -68.87890625 171.45898438 C-66.78630179 169.19301007 -64.96642662 167.01213993 -63.25 164.4375 C-60.3222886 164.12158958 -57.60170676 164.00013947 -54.66943359 164.00512695 C-53.78156662 163.9949353 -52.89369965 163.98474365 -51.97892761 163.97424316 C-49.03536787 163.94397605 -46.09213277 163.93482637 -43.1484375 163.92578125 C-41.11104234 163.90894472 -39.07365764 163.89079589 -37.0362854 163.87138367 C-31.6670661 163.82376609 -26.29788916 163.79403288 -20.92852783 163.76794434 C-15.45226674 163.73819799 -9.97615181 163.69164743 -4.5 163.64648438 C6.24992373 163.56031756 16.99987744 163.49303192 27.75 163.4375 C27.21491821 162.43888947 26.67983643 161.44027893 26.12854004 160.41140747 C25.41181957 159.07133383 24.69514735 157.73123438 23.97851562 156.39111328 C23.6275885 155.73649612 23.27666138 155.08187897 22.9151001 154.40742493 C19.87020055 148.70954577 16.96278016 142.949547 14.09765625 137.15917969 C11.75167241 132.43176872 9.38014084 127.71734821 7.00805664 123.00299072 C4.68151737 118.37811813 2.35976433 113.75084939 0.03808594 109.12353516 C-1.16691332 106.72373734 -2.37300352 104.3245284 -3.58105469 101.92626953 C-5.33966715 98.43481023 -7.09188392 94.94016206 -8.84375 91.4453125 C-9.38737183 90.36839142 -9.93099365 89.29147034 -10.49108887 88.18191528 C-10.98580688 87.19263031 -11.4805249 86.20334534 -11.99023438 85.18408203 C-12.42799194 84.31300812 -12.86574951 83.4419342 -13.31677246 82.54446411 C-14.25 80.4375 -14.25 80.4375 -14.25 78.4375 C-14.91 78.4375 -15.57 78.4375 -16.25 78.4375 C-16.57291016 79.23994141 -16.57291016 79.23994141 -16.90234375 80.05859375 C-18.74250186 83.30687285 -21.2484149 85.82170882 -23.8125 88.5 C-27.57455143 92.49487104 -31.20447764 96.51591166 -34.625 100.8125 C-38.85978848 106.09443617 -43.44871525 110.97626878 -48.09716797 115.89013672 C-51.46456839 119.4683973 -54.68367257 123.0931492 -57.75 126.9375 C-61.37710928 131.48492059 -65.25599916 135.71548167 -69.25 139.9375 C-74.03895592 145.00014675 -78.55166225 150.16867048 -82.90234375 155.6171875 C-86.8266481 160.33157642 -91.06026862 164.75655716 -95.25390625 169.23046875 C-99.63116714 173.9014332 -103.8014289 178.73497541 -107.94921875 183.609375 C-113.77238596 190.44353509 -119.68681414 197.1606019 -125.78125 203.75390625 C-131.52566865 209.52229284 -131.52566865 209.52229284 -136.09565735 216.14117432 C-137.5841878 218.61214089 -138.80296443 219.86603895 -141.25 221.4375 C-147.27226028 222.46110097 -153.24547235 222.25168097 -159.3359375 222.12109375 C-161.12096208 222.10802917 -162.90601185 222.09806906 -164.69107056 222.09107971 C-169.37707479 222.0644213 -174.06154707 221.99571943 -178.74694824 221.91815186 C-183.53291094 221.84639388 -188.31912253 221.8145415 -193.10546875 221.77929688 C-202.48765027 221.7043452 -211.86869748 221.58495909 -221.25 221.4375 C-219.51383071 217.74502161 -217.35549826 215.1815257 -214.5625 212.1875 C-211.56520384 208.94934489 -208.57945391 205.70821448 -205.6875 202.375 C-203.07298058 199.36676472 -200.42048344 196.39619751 -197.75 193.4375 C-194.48295665 189.81726277 -191.25479224 186.16766435 -188.0546875 182.48828125 C-186.02041859 180.17661203 -183.9477769 177.9021857 -181.875 175.625 C-178.80253227 172.22666448 -175.86557378 168.76159477 -173 165.1875 C-168.34341188 159.42803574 -163.32165823 154.05801301 -158.2578125 148.66015625 C-155.4077443 145.61955669 -152.64511189 142.51401576 -149.921875 139.359375 C-147.89241927 137.02644926 -145.822353 134.73238755 -143.75 132.4375 C-141.06016569 129.45687279 -138.38689636 126.46504767 -135.75 123.4375 C-132.35746907 119.54237189 -128.89805799 115.70967237 -125.4375 111.875 C-123.52445851 109.74332519 -121.63112388 107.5973089 -119.75 105.4375 C-117.11310364 102.40995233 -114.43983431 99.41812721 -111.75 96.4375 C-106.95092208 91.11415307 -102.2092205 85.74886661 -97.5703125 80.28515625 C-91.97558261 73.70431821 -86.29264888 67.23984102 -80.40625 60.91796875 C-77.18710045 57.46036368 -74.03755757 53.95720949 -70.94921875 50.3828125 C-68.95593572 48.1008471 -66.91506973 45.86521426 -64.875 43.625 C-61.78672508 40.21437988 -58.85983395 36.72860029 -56 33.125 C-41.10381115 14.87845726 -24.60254077 0.29409934 0 0 Z " fill="#5D7885" transform="translate(444.25,315.5625)"/>
<path d="M0 0 C0.8878418 0.00563965 1.77568359 0.0112793 2.69042969 0.01708984 C13.14435115 0.21110786 20.27999669 2.34991847 28.1875 9.3125 C28.77144531 9.79203125 29.35539062 10.2715625 29.95703125 10.765625 C39.98965501 19.73383947 45.58171211 34.76325998 51.625 46.625 C52.41329775 48.16603597 53.20196141 49.70688481 53.9909668 51.24755859 C55.60747849 54.40450075 57.22262683 57.5621347 58.83691406 60.72021484 C62.03388252 66.97064979 65.2539046 73.2091578 68.47348022 79.44796753 C75.27966411 92.63926122 82.05023794 105.84864734 88.8125 119.0625 C95.39340479 131.92175284 101.99370067 144.77033676 108.64135742 157.59521484 C112.04927362 164.17179686 115.44527734 170.75424422 118.828125 177.34375 C119.22671219 178.11993683 119.62529938 178.89612366 120.03596497 179.6958313 C121.97495183 183.47206648 123.9126898 187.24893385 125.84838867 191.02685547 C126.56413752 192.42162792 127.28003668 193.81632325 127.99609375 195.2109375 C128.34105392 195.88405975 128.6860141 196.55718201 129.04142761 197.2507019 C130.82358052 200.71482126 132.63672844 204.1581194 134.50048828 207.57910156 C134.87327408 208.26565826 135.24605988 208.95221497 135.63014221 209.65957642 C136.34077986 210.96341621 137.05676489 212.2643605 137.77891541 213.56185913 C139.31093245 216.37312709 140.1875 218.05551465 140.1875 221.3125 C57.0275 221.3125 -26.1325 221.3125 -111.8125 221.3125 C-110.23930572 218.16611144 -109.18574124 216.38609532 -106.9375 213.875 C-106.31875 213.18277344 -105.7 212.49054688 -105.0625 211.77734375 C-101.84260219 208.24999042 -98.60591358 204.73838474 -95.36010742 201.23486328 C-91.56465441 197.13726406 -87.81768686 192.99911898 -84.08984375 188.83984375 C-75.8529713 179.69875203 -75.8529713 179.69875203 -72.35032654 176.08700562 C-70.7012804 174.27947494 -70.7012804 174.27947494 -69.28456116 171.84194946 C-66.71807618 168.15277348 -64.26970206 164.98612266 -59.76662827 163.75164032 C-53.55208964 162.87839276 -47.28218624 163.16651613 -41.02734375 163.3359375 C-39 163.35460982 -36.97261086 163.36883448 -34.94520569 163.3788147 C-29.6323082 163.41683267 -24.32218428 163.5149128 -19.01037598 163.62585449 C-13.58086667 163.72851285 -8.15090508 163.77390002 -2.72070312 163.82421875 C7.91657722 163.9311753 18.55180718 164.10164037 29.1875 164.3125 C28.84391449 163.65529465 28.50032898 162.99808929 28.14633179 162.32096863 C18.83858179 144.49586874 9.75034524 126.57025142 0.78289795 108.57196045 C-0.87233964 105.2509702 -2.53004769 101.93121343 -4.1875 98.61132812 C-7.398146 92.1795373 -10.6062289 85.74647305 -13.8125 79.3125 C-14.75923584 80.08795166 -15.70597168 80.86340332 -16.68139648 81.66235352 C-17.21393539 82.09854507 -17.7464743 82.53473663 -18.29515076 82.98414612 C-20.44418835 84.86550761 -22.12776543 86.99561583 -23.875 89.25 C-27.55114992 93.85296268 -31.407484 98.20419279 -35.4375 102.5 C-39.41592574 106.74111442 -43.35101568 110.99696031 -47.1484375 115.40234375 C-49.12790126 117.67454511 -51.1583317 119.89709872 -53.1875 122.125 C-56.25996773 125.52333552 -59.19692622 128.98840523 -62.0625 132.5625 C-66.16266624 137.63753095 -70.54751774 142.37641442 -75.0168457 147.12231445 C-78.23974887 150.56324169 -81.30729618 154.06203041 -84.25 157.75 C-89.05577748 163.75500107 -94.32465165 169.28810777 -99.59375 174.8828125 C-103.54566017 179.08058922 -107.33595773 183.39540505 -111.06689453 187.79003906 C-117.09389158 194.88678099 -123.17396523 201.90155485 -129.53979492 208.69799805 C-129.99717041 209.18695557 -130.4545459 209.67591309 -130.92578125 210.1796875 C-131.37820694 210.6416301 -131.83063263 211.10357269 -132.29676819 211.57951355 C-133.87745955 213.27440003 -133.87745955 213.27440003 -134.98638916 215.3409729 C-136.70687976 218.00134482 -138.16316574 219.54048493 -140.8125 221.3125 C-146.87368814 222.45772287 -152.85038453 222.24480895 -158.99609375 222.09375 C-160.77968299 222.07881544 -162.5633052 222.06743416 -164.34693909 222.05944824 C-169.0249306 222.02900884 -173.70091169 221.95051971 -178.37811279 221.86181641 C-183.15739752 221.77974593 -187.93700949 221.74339173 -192.71679688 221.703125 C-202.08291106 221.61751494 -211.44753789 221.48110975 -220.8125 221.3125 C-219.46302429 218.52110614 -218.1606006 216.39126693 -216.01953125 214.140625 C-215.47522461 213.56280273 -214.93091797 212.98498047 -214.37011719 212.38964844 C-213.50628418 211.48520996 -213.50628418 211.48520996 -212.625 210.5625 C-211.43797304 209.30286407 -210.25176755 208.0424535 -209.06640625 206.78125 C-208.49937988 206.17925781 -207.93235352 205.57726562 -207.34814453 204.95703125 C-204.9955788 202.43765402 -202.7364597 199.8432256 -200.484375 197.234375 C-198.45491927 194.90144926 -196.384853 192.60738755 -194.3125 190.3125 C-189.51342208 184.98915307 -184.7717205 179.62386661 -180.1328125 174.16015625 C-174.06451893 167.0222858 -167.86147817 160.05080738 -161.48046875 153.19140625 C-157.2450365 148.6211082 -153.17723809 143.92085337 -149.14453125 139.171875 C-143.54457562 132.58830547 -137.8588913 126.1188603 -131.96875 119.79296875 C-128.75280561 116.33880626 -125.60732045 112.83814408 -122.51953125 109.26953125 C-120.47616569 106.9269085 -118.39569141 104.61976578 -116.3125 102.3125 C-111.51342208 96.98915307 -106.7717205 91.62386661 -102.1328125 86.16015625 C-96.53808261 79.57931821 -90.85514888 73.11484102 -84.96875 66.79296875 C-81.74960045 63.33536368 -78.60005757 59.83220949 -75.51171875 56.2578125 C-73.51843572 53.9758471 -71.47756973 51.74021426 -69.4375 49.5 C-66.23597567 45.96089998 -63.18103937 42.34146894 -60.1875 38.625 C-57.125631 34.84018971 -53.97561646 31.34013212 -50.46484375 27.97265625 C-48.75656833 26.25630388 -47.2737555 24.44344507 -45.75 22.5625 C-33.96673348 8.97864444 -18.19030071 -0.1198984 0 0 Z " fill="#5D7885" transform="translate(1089.8125,315.6875)"/>
<path d="M0 0 C1.61336494 -0.00591408 1.61336494 -0.00591408 3.25932312 -0.01194763 C6.81951332 -0.01866518 10.37842311 0.01054505 13.93847656 0.04077148 C16.42409009 0.04502466 18.90970759 0.0473505 21.39532471 0.0478363 C27.28249391 0.0547981 33.16919483 0.08542645 39.05621839 0.12618631 C45.03475583 0.16572652 51.0131507 0.17269075 56.99181747 0.1760416 C62.13268806 0.1805036 67.27347874 0.19587018 72.41431427 0.21491814 C74.86199544 0.22372409 77.30968491 0.23049043 79.75737762 0.23507881 C96.7195212 0.28025934 113.32647357 0.73563842 129.89160156 4.78686523 C130.76872803 4.99972168 131.64585449 5.21257812 132.54956055 5.43188477 C156.79864703 11.63467809 180.07182333 26.01379684 193.32910156 47.59936523 C206.07577591 69.30283274 209.21638954 94.01758895 203.09790039 118.59594727 C197.15985774 140.31062855 185.65299335 157.48486294 170.32910156 173.59936523 C169.47251953 174.55262695 169.47251953 174.55262695 168.59863281 175.52514648 C142.75257736 203.364471 100.15285007 216.51467119 63.32910156 218.59936523 C58.09367352 218.72813737 52.86121101 218.7266513 47.62475586 218.71289062 C46.09576418 218.71260781 44.56677236 218.71276832 43.03778076 218.71333313 C38.9291653 218.71361743 34.82057964 218.70778066 30.71197104 218.70075917 C26.40253082 218.69446392 22.09308974 218.69391699 17.78364563 218.69273376 C9.64194117 218.68963852 1.5002503 218.68144971 -6.6414482 218.67138427 C-15.91847576 218.66016674 -25.19550401 218.65469853 -34.47253668 218.64968884 C-53.53866494 218.6392654 -72.60478059 218.62170128 -91.67089844 218.59936523 C-91.08481755 210.6286295 -89.96382097 202.84716216 -88.55371094 194.98364258 C-88.34059265 193.77419983 -88.12747437 192.56475708 -87.90789795 191.31866455 C-87.32870002 188.03773192 -86.74543077 184.75757788 -86.15999603 181.47775602 C-85.54635411 178.03545104 -84.93735672 174.59232389 -84.32763672 171.14932251 C-83.3053513 165.3809464 -82.27929115 159.61325141 -81.25097656 153.84594727 C-80.0614016 147.17392257 -78.87804521 140.50081699 -77.69790077 133.82711828 C-76.56053936 127.39625618 -75.41870034 120.96619686 -74.27484131 114.53648758 C-73.78851632 111.80231298 -73.30380129 109.06786014 -72.82037354 106.33317184 C-72.14753517 102.52833872 -71.4681696 98.72468771 -70.78808594 94.92114258 C-70.58753601 93.78252777 -70.38698608 92.64391296 -70.18035889 91.47079468 C-69.99531799 90.44196167 -69.8102771 89.41312866 -69.61962891 88.3531189 C-69.45961395 87.45390905 -69.299599 86.55469921 -69.13473511 85.62824059 C-68.67089844 83.59936523 -68.67089844 83.59936523 -67.67089844 82.59936523 C-65.55408526 82.50514783 -63.43409085 82.48193762 -61.31518555 82.48583984 C-60.65179672 82.48569382 -59.9884079 82.48554779 -59.30491638 82.48539734 C-57.10265888 82.48609643 -54.90048499 82.49388859 -52.69824219 82.50170898 C-51.17509507 82.50357318 -49.65194736 82.50499707 -48.12879944 82.5059967 C-44.11252193 82.50982177 -40.09628036 82.51965195 -36.08001709 82.53070068 C-31.98466478 82.54091505 -27.88930668 82.54549438 -23.79394531 82.55053711 C-15.75291316 82.56127424 -7.71191026 82.57835052 0.32910156 82.59936523 C-2.68627472 101.4546167 -5.74379824 120.30042318 -9.01803589 139.11279297 C-9.32827404 140.8954874 -9.63745792 142.67836562 -9.94558716 144.46142578 C-10.3779532 146.95983903 -10.81468203 149.45744657 -11.25292969 151.95483398 C-11.38185608 152.70210251 -11.51078247 153.44937103 -11.64361572 154.21928406 C-12.55595259 159.36947353 -12.55595259 159.36947353 -13.67089844 161.59936523 C-2.82995057 161.51456225 8.01085651 161.4195283 18.85160255 161.31183815 C23.88671806 161.26213297 28.92181515 161.21580311 33.95703125 161.17749023 C38.82657306 161.14030872 43.69595039 161.09386505 48.56534958 161.04130173 C50.41261247 161.0229307 52.25991038 161.00776078 54.10722733 160.99602127 C67.87566244 160.9054853 81.36840416 160.48026812 94.51660156 155.91186523 C95.65730103 155.5210376 95.65730103 155.5210376 96.82104492 155.12231445 C103.28420103 152.80467297 108.87249077 149.79675815 114.32910156 145.59936523 C115.12703125 144.99350586 115.92496094 144.38764648 116.74707031 143.76342773 C126.44074778 135.80714304 133.38881081 124.06481809 135.32910156 111.59936523 C136.120155 98.28836981 134.47660768 87.4984414 126.32910156 76.59936523 C116.93405382 66.12314136 103.64706824 60.42309835 89.72757721 59.31183815 C85.66732228 59.19307995 81.61621552 59.16214872 77.5546875 59.16699219 C76.00613127 59.15795534 74.45758214 59.14762347 72.90904236 59.1361084 C68.74251108 59.10873778 64.57611625 59.09928128 60.4095068 59.09325433 C56.04128136 59.08381826 51.67315578 59.05761099 47.30499268 59.0332489 C39.04995033 58.9897233 30.79492751 58.96109099 22.53980565 58.93792552 C13.13456978 58.91079875 3.72943507 58.86689211 -5.67572832 58.8216368 C-25.00739814 58.72899037 -44.33909474 58.65721846 -63.67089844 58.59936523 C-62.14486429 55.38306382 -60.57289073 53.31167224 -57.98339844 50.84936523 C-55.27010519 48.20927235 -52.69235538 45.54022371 -50.23339844 42.66186523 C-46.95959191 38.8511246 -43.43725873 35.34858359 -39.86230469 31.82202148 C-37.24988776 29.17235084 -34.83787223 26.38763721 -32.41699219 23.56420898 C-29.94974546 20.78786647 -27.29713792 18.21591435 -24.65136719 15.61108398 C-22.11039745 13.03002005 -19.75165778 10.31738183 -17.40917969 7.55639648 C-16.83554687 6.91057617 -16.26191406 6.26475586 -15.67089844 5.59936523 C-14.70975128 4.31986244 -14.70975128 4.31986244 -13.72918701 3.01451111 C-9.27143748 -0.50579612 -5.52961428 -0.0810593 0 0 Z " fill="#5D7885" transform="translate(698.6708984375,318.400634765625)"/>
<path d="M0 0 C0.68787598 -0.02247803 1.37575195 -0.04495605 2.08447266 -0.06811523 C10.58868578 -0.02903153 17.21901245 2.89475679 23.38671875 8.703125 C25.00269881 10.34929803 26.60284584 12.01115028 28.1875 13.6875 C29.39116211 14.91919922 29.39116211 14.91919922 30.61914062 16.17578125 C34.87445182 20.55962021 38.98352523 25.04559609 42.9543457 29.68847656 C44.56883867 31.51539611 46.25993611 33.23037832 48 34.9375 C50.43389732 37.32803167 52.71355559 39.78796262 54.9375 42.375 C57.35617779 45.18326347 59.85899683 47.83720593 62.5 50.4375 C65.09982183 52.99740134 67.56268398 55.6052954 69.9375 58.375 C72.50665271 61.36551716 75.19317256 64.16866684 78 66.9375 C81.4288279 70.31991399 84.62048518 73.81820442 87.75390625 77.47265625 C90.22481389 80.25311832 92.8816694 82.82868218 95.53125 85.4375 C98.05425459 88.00055228 100.37562817 90.71095824 102.71875 93.4375 C104.5742521 95.52087078 106.51223101 97.48031207 108.5 99.4375 C111.75029983 102.63779522 114.74724245 105.97974576 117.71875 109.4375 C120.19539187 112.21829088 122.84989602 114.80004396 125.5078125 117.40625 C128.18064125 120.13148716 130.62305162 123.02816708 133.0546875 125.96875 C133.53164062 126.4534375 134.00859375 126.938125 134.5 127.4375 C135.16 127.4375 135.82 127.4375 136.5 127.4375 C136.66869048 126.48801908 136.66869048 126.48801908 136.84078884 125.51935673 C139.57381655 110.13798772 142.31121527 94.7574041 145.05351925 79.3776865 C146.37955442 71.94024313 147.70409294 64.50253896 149.02514648 57.06420898 C150.17619079 50.58315556 151.33000429 44.10260242 152.48718649 37.62264198 C153.10015971 34.18956436 153.71171581 30.75624754 154.31995964 27.32232857 C154.9979776 23.49479239 155.68217589 19.66837576 156.36694336 15.84204102 C156.56906433 14.69549545 156.7711853 13.54894989 156.97943115 12.36766052 C157.16591721 11.33134491 157.35240326 10.2950293 157.54454041 9.22731018 C157.70585418 8.32118768 157.86716795 7.41506517 158.03337002 6.48148441 C158.5 4.4375 158.5 4.4375 159.5 3.4375 C161.43306498 3.34353943 163.36958838 3.32006483 165.30493164 3.32397461 C166.54614273 3.32405014 167.78735382 3.32412567 169.06617737 3.32420349 C170.4308374 3.32931089 171.79549702 3.3345269 173.16015625 3.33984375 C174.54878183 3.341708 175.93740807 3.34313187 177.32603455 3.34413147 C180.98721115 3.34795613 184.6483483 3.35778597 188.30950928 3.36883545 C192.04292253 3.37905068 195.77634233 3.38368403 199.50976562 3.38867188 C206.83986164 3.39887808 214.16992403 3.41764406 221.5 3.4375 C216.37483212 33.36730381 211.06182139 63.26325787 205.7355032 93.15780544 C204.01704259 102.80350445 202.30343466 112.45003988 200.59595054 122.09768814 C199.38136024 128.95794433 198.16115205 135.81718748 196.93689209 142.67572457 C196.21106095 146.74287421 195.48762565 150.81041351 194.77038383 154.87908745 C194.09791742 158.69317879 193.41842313 162.50595468 192.7338028 166.31788254 C192.48620943 167.70321053 192.24103461 169.08897369 191.99866676 170.47522545 C188.88771655 188.24720893 184.92755886 206.85662615 169.3046875 218.00390625 C167.08127632 219.3015417 164.85382217 220.3972493 162.5 221.4375 C161.84902344 221.75589844 161.19804688 222.07429687 160.52734375 222.40234375 C152.39905898 225.80087515 140.45126285 226.01662886 132.0625 223.5 C126.7767362 220.99310531 122.62733683 216.47926206 118.5 212.4375 C117.78457031 211.74914062 117.06914063 211.06078125 116.33203125 210.3515625 C112.4198097 206.5225797 108.78203575 202.52068444 105.21484375 198.37109375 C103.53995701 196.48255403 101.80052413 194.70594352 100 192.9375 C97.56610268 190.54696833 95.28644441 188.08703738 93.0625 185.5 C90.64382221 182.69173653 88.14100317 180.03779407 85.5 177.4375 C82.90017817 174.87759866 80.43731602 172.2697046 78.0625 169.5 C75.49334729 166.50948284 72.80682744 163.70633316 70 160.9375 C66.5711721 157.55508601 63.37951482 154.05679558 60.24609375 150.40234375 C57.77518611 147.62188168 55.1183306 145.04631782 52.46875 142.4375 C49.94574541 139.87444772 47.62437183 137.16404176 45.28125 134.4375 C43.4257479 132.35412922 41.48776899 130.39468793 39.5 128.4375 C36.24970017 125.23720478 33.25275755 121.89525424 30.28125 118.4375 C27.80109205 115.65276124 25.14079434 113.06835954 22.484375 110.453125 C19.91013297 107.83834372 17.51831818 105.09008738 15.140625 102.296875 C13.3400923 100.25627127 11.43084075 98.35442836 9.5 96.4375 C6.30469177 108.96554479 4.2761008 121.71316884 2.0859375 134.4453125 C1.66701723 136.86341851 1.2477095 139.28145742 0.82803345 141.69943237 C-0.26945317 148.02694701 -1.36304378 154.3551277 -2.4553833 160.68353271 C-4.2098394 170.8467766 -5.96813251 181.00935199 -7.73048019 191.17123032 C-8.34465025 194.71789615 -8.95583499 198.26506773 -9.56680298 201.81228638 C-9.94106293 203.97399938 -10.31543614 206.13569277 -10.68994141 208.29736328 C-10.85929703 209.28538437 -11.02865265 210.27340546 -11.20314026 211.29136658 C-11.36004837 212.19384628 -11.51695648 213.09632599 -11.67861938 214.02615356 C-11.81391367 214.81030703 -11.94920795 215.59446049 -12.08860207 216.40237617 C-12.5 218.4375 -12.5 218.4375 -13.5 221.4375 C-33.96 221.4375 -54.42 221.4375 -75.5 221.4375 C-74.32657271 212.05008171 -73.15877504 202.77198936 -71.51867676 193.47070312 C-71.3966539 192.775979 -71.27463104 192.08125488 -71.14891052 191.36547852 C-71.02258743 190.64674561 -70.89626434 189.9280127 -70.76611328 189.1875 C-70.49613912 187.63481961 -70.22648553 186.08208345 -69.9571228 184.52929688 C-69.23337989 180.36336987 -68.50479369 176.19830467 -67.7749238 172.03344727 C-67.16227713 168.53507747 -66.5519592 165.0363029 -65.94158161 161.53753662 C-64.4999485 153.27439662 -63.05423391 145.01197793 -61.60595703 136.75 C-60.11977682 128.27134944 -58.64073013 119.79147627 -57.16515553 111.31097412 C-55.89031636 103.98572794 -54.61090279 96.66129042 -53.32793605 89.33746338 C-52.56511265 84.98258546 -51.80395622 80.62743422 -51.04727554 76.27148438 C-50.33512014 72.17297878 -49.61718792 68.07552392 -48.89508438 63.97875977 C-48.6335059 62.48936749 -48.37384333 60.99963702 -48.11641693 59.50952148 C-41.1560699 19.25781198 -41.1560699 19.25781198 -27.02734375 8.56640625 C-18.20891889 2.60063641 -10.54338335 0.22056804 0 0 Z " fill="#5D7885" transform="translate(1714.5,315.5625)"/>
<path d="M0 0 C22.44 0 44.88 0 68 0 C64.38246437 22.08114169 60.59867787 44.12723077 56.69921875 66.16015625 C56.57942736 66.83701965 56.45963597 67.51388305 56.33621454 68.21125746 C54.83753945 76.67760175 53.3357898 85.14339956 51.83292782 93.60900152 C50.19509826 102.83525882 48.56024347 112.06204335 46.92527962 121.28880882 C45.69722068 128.21891124 44.46838148 135.14887343 43.23776245 142.07852173 C40.90828499 155.19903693 38.59028384 168.32142069 36.29931641 181.44873047 C35.67453795 185.02068731 35.04953698 188.59260516 34.42450905 192.16451836 C33.84445167 195.48744201 33.26868229 198.81109022 32.69303894 202.13478088 C32.34740969 204.11129386 32.00158196 206.08777215 31.65551758 208.06420898 C31.42368365 209.41545396 31.42368365 209.41545396 31.18716621 210.79399681 C30.113765 216.886235 30.113765 216.886235 29 218 C26.88318683 218.0942174 24.76319242 218.11742761 22.64428711 218.11352539 C21.98089828 218.11367142 21.31750946 218.11381744 20.63401794 218.1139679 C18.43176044 218.11326881 16.22958655 218.10547665 14.02734375 218.09765625 C12.50419664 218.09579206 10.98104893 218.09436816 9.457901 218.09336853 C5.44162349 218.08954346 1.42538192 218.07971328 -2.59088135 218.06866455 C-6.68623366 218.05845019 -10.78159176 218.05387086 -14.87695312 218.04882812 C-22.91798599 218.038091 -30.95898673 218.02061904 -39 218 C-37.5923134 207.57481288 -35.86317129 197.23475154 -34.0065918 186.88232422 C-33.7087886 185.21146247 -33.41119763 183.54056289 -33.11380005 181.86962891 C-32.31203514 177.36833658 -31.5073311 172.8675743 -30.70206809 168.36690664 C-29.85252407 163.61577393 -29.00574172 158.86414901 -28.15864563 154.11257935 C-26.5516291 145.10081927 -24.94216739 136.08949772 -23.33181077 127.07833397 C-21.51797756 116.92788616 -19.70686703 106.7769532 -17.89599741 96.62597632 C-15.67886055 84.19789271 -13.46117488 71.76990718 -11.24162292 59.34225464 C-11.00666954 58.02656134 -11.00666954 58.02656134 -10.76696962 56.68428838 C-10.00959982 52.44357335 -9.2517634 48.20294273 -8.49291515 43.96249199 C-7.26921634 37.12241204 -6.04705899 30.28213473 -4.84469408 23.43826711 C-4.48831256 21.40989426 -4.13079891 19.38172421 -3.77295399 17.35360909 C-3.34563426 14.92866492 -2.9207523 12.50328937 -2.49879742 10.07740593 C-2.31383615 9.02996775 -2.12887487 7.98252956 -1.93830872 6.90335083 C-1.77989408 5.99730669 -1.62147943 5.09126255 -1.45826435 4.15776253 C-1 2 -1 2 0 0 Z " fill="#5D7885" transform="translate(1570,319)"/>
<path d="M0 0 C3 1 3 1 3.95904541 2.88818359 C4.23327332 3.71656738 4.50750122 4.54495117 4.79003906 5.3984375 C5.10757141 6.33872803 5.42510376 7.27901855 5.7522583 8.24780273 C6.08666931 9.27977783 6.42108032 10.31175293 6.765625 11.375 C7.12211121 12.4462915 7.47859741 13.51758301 7.84588623 14.62133789 C8.60459313 16.90958433 9.35744153 19.19978005 10.10498047 21.49169922 C11.21950358 24.90656002 12.35205246 28.31496526 13.48828125 31.72265625 C17.52941943 43.92814974 21.23821458 56.18131888 24.63899231 68.58009338 C26.59534955 75.67586984 28.74494207 82.58133743 31.4375 89.4375 C31.81672607 90.42226318 32.19595215 91.40702637 32.58666992 92.42163086 C41.51001722 115.34107261 52.35562926 137.50213641 66 158 C66.56581787 158.85295654 66.56581787 158.85295654 67.14306641 159.72314453 C84.46554695 185.66556771 105.7379922 211.5337952 130.3125 230.87890625 C132.26485526 232.41979129 134.17115266 233.9775768 136.0625 235.58984375 C142.60669836 241.16979831 142.60669836 241.16979831 149.75 245.9375 C150.8225 246.618125 151.895 247.29875 153 248 C153 248.99 153 249.98 153 251 C134.18909318 262.84499289 112.49325722 269.10583386 90.1875 264.875 C73.5654984 260.94350347 57.99371207 253.08987148 45 242 C44.21367187 241.35804688 43.42734375 240.71609375 42.6171875 240.0546875 C14.44865838 216.12468314 1.94149246 178.3142228 -4 143 C-4.27505371 141.47536133 -4.27505371 141.47536133 -4.55566406 139.91992188 C-12.72424222 93.50691771 -7.95417344 46.07613116 0 0 Z " fill="#A2C94E" transform="translate(177,109)"/>
<path d="M0 0 C0.66 0 1.32 0 2 0 C3.69642224 6.20592824 5.38275118 12.41453832 7.0625 18.625 C7.31432037 19.55503845 7.56614075 20.4850769 7.82559204 21.44329834 C11.02628915 33.29135186 14.02476775 45.1446926 16.6875 57.125 C26.0975053 98.69673187 46.09292532 137.81538931 74.66552734 169.51855469 C75.91989303 170.91107042 77.15780922 172.31835373 78.39453125 173.7265625 C86.2634373 182.62903764 94.4347105 190.81560377 103.84765625 198.08984375 C106 200 106 200 107 203 C90.43946444 210.67197225 73.26523552 215.41504765 55.13671875 210.171875 C44.80282761 206.31114357 35.34153849 201.25958162 27 194 C26.42507813 193.566875 25.85015625 193.13375 25.2578125 192.6875 C3.84913364 176.11303895 -5.33489233 145.61910264 -9 120 C-13.93302294 79.73151929 -9.07771751 39.35368036 0 0 Z " fill="#96C748" transform="translate(251,101)"/>
<path d="M0 0 C0.99 0.33 1.98 0.66 3 1 C3.80718994 2.92855835 3.80718994 2.92855835 4.42285156 5.49365234 C4.6603009 6.45330902 4.89775024 7.4129657 5.14239502 8.40170288 C5.51276886 9.97789902 5.51276886 9.97789902 5.890625 11.5859375 C6.15832703 12.67145905 6.42602905 13.75698059 6.70184326 14.87539673 C7.56350225 18.37239667 8.40844947 21.87311048 9.25 25.375 C19.03744085 66.01727637 33.908538 99.47413618 63 130 C63.66128906 130.70253906 64.32257813 131.40507812 65.00390625 132.12890625 C68.70441506 135.96187175 72.57981718 139.02314218 77 142 C76 145 76 145 74.46875 146.09765625 C63.72649741 151.36221258 51.59982962 152.9961512 39.875 149.9375 C22.44849155 143.79536997 10.22883376 131.21220186 2.3125 114.875 C-14.03964068 79.40640679 -7.27134622 36.83656612 0 0 Z " fill="#96C748" transform="translate(308,110)"/>
<path d="M0 0 C5.33028629 -0.85785324 9.74082532 -1.12598003 15 0 C19.23240631 3.82822644 21.52839095 8.54347992 24.0625 13.5625 C24.807243 14.93137214 25.55796629 16.29700658 26.31445312 17.65942383 C27.84113905 20.42033062 29.34037825 23.19352514 30.82080078 25.97949219 C33.97321342 31.86209895 37.48557606 37.51518557 41 43.1875 C42.12582588 45.03465314 43.250901 46.8822642 44.375 48.73046875 C45.87504002 51.19081722 47.40083933 53.601259 49 56 C49.09578339 55.4606633 49.19156677 54.9213266 49.29025269 54.36564636 C50.29593554 48.70310787 51.30193307 43.04062535 52.30810547 37.37817383 C52.68253358 35.27076601 53.05688403 33.1633444 53.43115234 31.0559082 C53.97212151 28.00989117 54.51337889 24.96392547 55.0546875 21.91796875 C55.301689 20.52664986 55.301689 20.52664986 55.55368042 19.10722351 C56.68646194 12.73519376 57.83908466 6.36696566 59 0 C63.95 0 68.9 0 74 0 C70.99330343 19.37281784 67.92774191 38.73445279 64.65286255 58.06399536 C64.34231538 59.89813597 64.03313413 61.73250836 63.72531128 63.56710815 C63.29373687 66.13531819 62.85674547 68.70254321 62.41796875 71.26953125 C62.28904236 72.04066254 62.16011597 72.81179382 62.02728271 73.60629272 C61.11473213 78.88526787 61.11473213 78.88526787 60 80 C54.66766744 81.02701813 50.26322027 81.18743384 45 80 C41.40626862 76.73607308 39.47198527 72.76616876 37.3125 68.4921875 C34.61893084 63.37761272 31.50456458 58.49830692 28.5 53.5625 C27.20323387 51.39993183 25.90891916 49.2358916 24.6171875 47.0703125 C24.00069336 46.03680664 23.38419922 45.00330078 22.74902344 43.93847656 C21.18603543 41.31255199 19.62709918 38.68429139 18.0703125 36.0546875 C17.43899414 34.99205688 17.43899414 34.99205688 16.79492188 33.90795898 C16.03508407 32.62819043 15.27838724 31.34654986 14.52539062 30.06274414 C13.71102376 28.69182607 12.86017089 27.34265252 12 26 C11.67 26 11.34 26 11 26 C10.88946793 26.66176743 10.77893585 27.32353485 10.66505432 28.00535583 C9.5181057 34.86742428 8.36556727 41.72853682 7.2097168 48.58911133 C6.77858093 51.15267025 6.34889099 53.71647277 5.9206543 56.28051758 C5.30633726 59.95718727 4.68689555 63.63296136 4.06640625 67.30859375 C3.87470352 68.46274277 3.68300079 69.61689178 3.48548889 70.80601501 C3.21532204 72.3975515 3.21532204 72.3975515 2.93969727 74.02124023 C2.78203384 74.96055893 2.62437042 75.89987762 2.46192932 76.86766052 C2 79 2 79 1 80 C-2.59499796 80.11109388 -6.17884273 80.06145187 -9.77514648 80.02905273 C-10.83934814 80.01946533 -11.9035498 80.00987793 -13 80 C-11.53895832 64.95250771 -8.89543621 50.12057598 -6.28533936 35.23754883 C-5.81751038 32.56438112 -5.35367723 29.89052704 -4.89002132 27.21663284 C-3.93067349 21.68440242 -2.96828842 16.15270023 -1.99975586 10.62207031 C-1.745662 9.17009247 -1.745662 9.17009247 -1.48643494 7.68878174 C-1.02152273 5.11896746 -0.52107095 2.55895938 0 0 Z " fill="#9FC94E" transform="translate(1065,582)"/>
<path d="M0 0 C0.886875 0.78375 1.77375 1.5675 2.6875 2.375 C2.6875 3.035 2.6875 3.695 2.6875 4.375 C3.3475 4.375 4.0075 4.375 4.6875 4.375 C11.49162969 13.39786763 13.66244544 22.22406149 12.6875 33.375 C10.29015477 46.78514987 3.90823439 58.09843929 -6.98828125 66.41796875 C-19.24460393 74.54840063 -32.19275275 78.40358762 -46.875 75.6875 C-55.81017479 73.41824926 -63.4962408 68.20672109 -68.5625 60.46484375 C-73.90914035 50.57749045 -74.31578262 40.24281464 -71.55859375 29.4140625 C-69.43213864 23.06138908 -66.33709738 17.70759153 -62.3125 12.375 C-61.69375 11.54742188 -61.075 10.71984375 -60.4375 9.8671875 C-46.04278927 -7.01484457 -18.83377398 -12.79633434 0 0 Z M-50.3125 18.375 C-55.38789297 25.1106944 -57.59906644 31.36879122 -57.625 39.875 C-57.64175781 41.1434375 -57.65851563 42.411875 -57.67578125 43.71875 C-57.08237076 49.69113948 -54.32383405 54.00972471 -50.3125 58.375 C-43.50552752 63.13988073 -36.40545704 63.0198199 -28.3125 62.375 C-20.57464812 60.65425957 -14.40304497 56.38844911 -9.3125 50.375 C-4.27818296 42.22067556 -0.65445188 33.85579978 -2.80859375 24.13671875 C-4.75267899 17.60151696 -7.78233029 12.67632041 -13.6875 9 C-26.75610337 3.13397917 -41.09977214 8.33970716 -50.3125 18.375 Z " fill="#9FC950" transform="translate(1477.3125,586.625)"/>
<path d="M0 0 C6.74724166 6.00040957 10.5368989 12.8216877 11.34375 21.84375 C11.83664415 35.20260788 8.57860853 46.95947846 -0.00390625 57.44921875 C-10.31634253 68.31509526 -22.61935874 74.70130406 -37.625 75.25 C-47.49089177 75.10164073 -56.52034905 72.58955813 -64 66 C-71.45430994 58.28413533 -74.10773263 51.19974137 -74.375 40.5625 C-74.06996708 27.81466587 -69.66950259 16.58233368 -60.8125 7.25 C-44.09075584 -8.43190461 -19.41779346 -14.4668991 0 0 Z M-53.25 19.25 C-58.11882355 26.90100843 -60.14066258 34.98735743 -59 44 C-56.93190414 50.89365287 -53.01440422 56.05319727 -47 59.9375 C-39.9892912 62.43019646 -30.99312608 62.20382856 -24.125 59.4375 C-15.16958073 54.73465413 -8.31731726 47.32580382 -4.765625 37.8828125 C-3.00253983 31.24425712 -2.74693436 23.93713562 -5.5625 17.5625 C-8.59459458 12.45865396 -13.442211 8.14135478 -19 6 C-34.26380139 4.47184293 -42.64570839 8.64570839 -53.25 19.25 Z " fill="#9FC950" transform="translate(1255,588)"/>
<path d="M0 0 C18.81 0 37.62 0 57 0 C55 13 55 13 54 14 C50.89748799 14.08874135 47.8173188 14.11518455 44.71484375 14.09765625 C43.78402481 14.0962413 42.85320587 14.09482635 41.8941803 14.09336853 C38.90858809 14.08775172 35.92306971 14.0751964 32.9375 14.0625 C30.91862087 14.05748716 28.89974057 14.05292388 26.88085938 14.04882812 C21.92054428 14.03777683 16.96028468 14.02050095 12 14 C11.95101563 14.70125 11.90203125 15.4025 11.8515625 16.125 C11.77679687 17.07375 11.70203125 18.0225 11.625 19 C11.55539062 19.928125 11.48578125 20.85625 11.4140625 21.8125 C10.92261596 25.59571111 9.92527281 29.29890878 9 33 C21.54 33 34.08 33 47 33 C46.34 37.29 45.68 41.58 45 46 C41.88045872 47.55977064 38.57040616 47.12104126 35.1484375 47.09765625 C34.37440582 47.0962413 33.60037415 47.09482635 32.80288696 47.09336853 C30.32688558 47.08776403 27.85097412 47.07521083 25.375 47.0625 C23.69791797 47.05748558 22.02083453 47.05292257 20.34375 47.04882812 C16.22913194 47.03779315 12.11458122 47.02052554 8 47 C6.12448266 53.02844858 5.15260958 58.66064733 4 65 C18.19 65.33 32.38 65.66 47 66 C46.34 70.62 45.68 75.24 45 80 C25.86 80 6.72 80 -13 80 C-11.87486633 66.498396 -11.87486633 66.498396 -10.89257812 60.71850586 C-10.67565308 59.42774643 -10.45872803 58.136987 -10.23522949 56.80711365 C-10.00074893 55.44299285 -9.7660849 54.07890359 -9.53125 52.71484375 C-9.2880817 51.28192825 -9.045291 49.84894863 -8.80285645 48.41590881 C-8.29826708 45.43957626 -7.79036937 42.46383529 -7.27978516 39.48852539 C-6.62569709 35.67637833 -5.9782403 31.86314187 -5.33298492 28.04949093 C-4.8339323 25.10239201 -4.33236897 22.15572507 -3.8299408 19.20919991 C-3.59016631 17.80227721 -3.35095448 16.39525851 -3.11231995 14.98814201 C-2.77977082 13.03066366 -2.44367979 11.07378802 -2.10742188 9.11694336 C-1.91724487 8.00508163 -1.72706787 6.89321991 -1.53112793 5.74766541 C-1 3 -1 3 0 0 Z " fill="#9EC850" transform="translate(1733,582)"/>
<path d="M0 0 C18.48 0 36.96 0 56 0 C55 12 55 12 54 14 C40.14 14 26.28 14 12 14 C11.34 19.28 10.68 24.56 10 30 C9.67 30.99 9.34 31.98 9 33 C21.21 33 33.42 33 46 33 C45.67 37.29 45.34 41.58 45 46 C41.82709287 47.58645357 38.41174616 47.12078213 34.9296875 47.09765625 C34.13345978 47.0962413 33.33723206 47.09482635 32.51687622 47.09336853 C29.9695462 47.08776345 27.42230353 47.07521014 24.875 47.0625 C23.14974085 47.05748565 21.42448033 47.05292263 19.69921875 47.04882812 C15.46608496 47.03864253 11.23314046 47.0190682 7 47 C6.01 52.94 5.02 58.88 4 65 C18.19 65.33 32.38 65.66 47 66 C45 79 45 79 44 80 C42.22008076 80.09370624 40.43643261 80.11744271 38.65405273 80.11352539 C37.5129454 80.11344986 36.37183807 80.11337433 35.19615173 80.11329651 C33.9545076 80.10813522 32.71286346 80.10297394 31.43359375 80.09765625 C29.53795433 80.09553383 29.53795433 80.09553383 27.60401917 80.09336853 C24.23875111 80.08870582 20.8735501 80.0797148 17.50830078 80.06866455 C14.0765033 80.05844846 10.64469891 80.05387049 7.21289062 80.04882812 C0.47524176 80.0377738 -6.26237525 80.0210171 -13 80 C-12.41814728 70.79484499 -11.09504134 61.79826788 -9.53125 52.71484375 C-9.2880817 51.28192825 -9.045291 49.84894863 -8.80285645 48.41590881 C-8.29826708 45.43957626 -7.79036937 42.46383529 -7.27978516 39.48852539 C-6.62569709 35.67637833 -5.9782403 31.86314187 -5.33298492 28.04949093 C-4.8339323 25.10239201 -4.33236897 22.15572507 -3.8299408 19.20919991 C-3.59016631 17.80227721 -3.35095448 16.39525851 -3.11231995 14.98814201 C-2.77977082 13.03066366 -2.44367979 11.07378802 -2.10742188 9.11694336 C-1.91724487 8.00508163 -1.72706787 6.89321991 -1.53112793 5.74766541 C-1 3 -1 3 0 0 Z " fill="#9EC850" transform="translate(720,582)"/>
<path d="M0 0 C4.62 0 9.24 0 14 0 C14 5.01821435 13.82368874 8.79622631 12.90625 13.58984375 C12.70322266 14.6687085 12.50019531 15.74757324 12.29101562 16.85913086 C12.02998047 18.20499268 11.76894531 19.55085449 11.5 20.9375 C10.675 25.248125 9.85 29.55875 9 34 C21.54 34 34.08 34 47 34 C47.33 30.37 47.66 26.74 48 23 C48.29185898 20.95995169 48.60916598 18.92304144 48.97265625 16.89453125 C49.14990234 15.89228516 49.32714844 14.89003906 49.50976562 13.85742188 C49.69216797 12.85259766 49.87457031 11.84777344 50.0625 10.8125 C50.24876953 9.76513672 50.43503906 8.71777344 50.62695312 7.63867188 C51.08052135 5.09171185 51.53966743 2.54574615 52 0 C56.95 0 61.9 0 67 0 C65.69126555 10.18750253 64.17788645 20.30629744 62.43359375 30.4296875 C62.19209916 31.84072755 61.95073319 33.25178962 61.70948792 34.66287231 C61.20965436 37.58237808 60.70773128 40.50151483 60.2043457 43.42041016 C59.55855152 47.16659337 58.91907197 50.91382523 58.28117275 54.66135979 C57.78727634 57.55791214 57.28969143 60.45382147 56.79100227 63.34955215 C56.55331784 64.73288734 56.31689549 66.11643998 56.08175468 67.50020981 C55.75551545 69.41729915 55.42368154 71.33343394 55.09155273 73.24951172 C54.90439194 74.33900116 54.71723114 75.4284906 54.5243988 76.55099487 C54 79 54 79 53 80 C50.64686445 80.07271741 48.29166332 80.08370868 45.9375 80.0625 C44.00197266 80.04896484 44.00197266 80.04896484 42.02734375 80.03515625 C41.02832031 80.02355469 40.02929688 80.01195312 39 80 C39.2638496 77.66570704 39.53613032 75.33282122 39.8125 73 C39.96332031 71.700625 40.11414063 70.40125 40.26953125 69.0625 C41.2877894 62.00548098 42.68600379 55.00797981 44 48 C31.46 48 18.92 48 6 48 C5.67 51.96 5.34 55.92 5 60 C4.53999176 63.22505779 4.05737021 66.41874166 3.5 69.625 C3.36980469 70.41261719 3.23960937 71.20023438 3.10546875 72.01171875 C2.13415179 77.73169643 2.13415179 77.73169643 1 80 C-3.62 80 -8.24 80 -13 80 C-12.36884845 70.78991215 -11.09664008 61.80755433 -9.53125 52.71484375 C-9.2880817 51.28192825 -9.045291 49.84894863 -8.80285645 48.41590881 C-8.29826708 45.43957626 -7.79036937 42.46383529 -7.27978516 39.48852539 C-6.62569709 35.67637833 -5.9782403 31.86314187 -5.33298492 28.04949093 C-4.8339323 25.10239201 -4.33236897 22.15572507 -3.8299408 19.20919991 C-3.59016631 17.80227721 -3.35095448 16.39525851 -3.11231995 14.98814201 C-2.77977082 13.03066366 -2.44367979 11.07378802 -2.10742188 9.11694336 C-1.91724487 8.00508163 -1.72706787 6.89321991 -1.53112793 5.74766541 C-1 3 -1 3 0 0 Z " fill="#9FC94E" transform="translate(944,582)"/>
<path d="M0 0 C1.02815186 0.97103231 2.03850893 1.96292001 3 3 C1.63629701 5.99220268 0.05091917 8.29026529 -2.125 10.75 C-2.66382813 11.36359375 -3.20265625 11.9771875 -3.7578125 12.609375 C-4.16773438 13.06828125 -4.57765625 13.5271875 -5 14 C-7.45655299 13.56132982 -8.87386853 13.10101207 -10.84375 11.5234375 C-16.12454949 7.79243786 -24.02484184 7.69430872 -30.26953125 8.3359375 C-39.68678654 10.39105098 -47.29396449 14.77581746 -52.78125 22.80859375 C-56.77142067 29.98322755 -58.08237147 37.87613325 -57 46 C-55.22011743 51.91283022 -52.08333731 55.61110846 -47 59 C-36.9249028 63.06878926 -27.13385526 60.66847599 -17 58 C-16.91435791 57.37432129 -16.82871582 56.74864258 -16.74047852 56.10400391 C-16.35146482 53.27715353 -15.9570505 50.45108268 -15.5625 47.625 C-15.42779297 46.64015625 -15.29308594 45.6553125 -15.15429688 44.640625 C-15.02216797 43.69960938 -14.89003906 42.75859375 -14.75390625 41.7890625 C-14.57323608 40.48509521 -14.57323608 40.48509521 -14.38891602 39.15478516 C-14 37 -14 37 -13 35 C-8.38 35 -3.76 35 1 35 C0.74569835 39.01796606 0.40210683 42.9955134 0 47 C-0.05430176 47.70092773 -0.10860352 48.40185547 -0.16455078 49.12402344 C-1.23687347 62.07768146 -1.23687347 62.07768146 -5.29296875 66.5 C-8.12618809 68.35418022 -10.86964169 69.71585563 -14 71 C-14.89074219 71.41378906 -15.78148437 71.82757812 -16.69921875 72.25390625 C-28.46387836 77.42459126 -41.79239556 77.59932742 -53.9140625 73.4609375 C-62.81180525 69.2485884 -68.52658408 62.26898509 -72.07421875 53.27734375 C-73.1264698 49.55228624 -73.34463304 46.08897963 -73.3125 42.25 C-73.30686035 41.54335205 -73.3012207 40.8367041 -73.29541016 40.10864258 C-73.01563311 27.99097226 -68.16360271 17.04928353 -59.8125 8.25 C-43.47050744 -7.07576781 -19.55244121 -13.23127046 0 0 Z " fill="#9DC84F" transform="translate(1606,587)"/>
<path d="M0 0 C-0.58536753 3.66060821 -2.083239 5.54535164 -4.5625 8.25 C-5.20316406 8.95640625 -5.84382813 9.6628125 -6.50390625 10.390625 C-6.99761719 10.92171875 -7.49132813 11.4528125 -8 12 C-8.56847656 11.71382812 -9.13695312 11.42765625 -9.72265625 11.1328125 C-10.47417969 10.75898437 -11.22570313 10.38515625 -12 10 C-12.69996094 9.64679687 -13.39992188 9.29359375 -14.12109375 8.9296875 C-22.00321857 5.34086169 -29.90286148 4.71973281 -38.328125 6.8359375 C-39.20984375 7.22007812 -40.0915625 7.60421875 -41 8 C-41.91692961 10.75078884 -42.10886083 12.35948913 -42.0625 15.1875 C-42.041875 16.445625 -42.02125 17.70375 -42 19 C-36.83376553 21.90600689 -31.67612875 23.7711676 -26 25.4375 C-17.79620816 27.88978183 -10.89996605 30.55205161 -6 38 C-3.93276282 44.20171153 -4.28020984 51.06988111 -6.9140625 57.0625 C-11.58225524 65.39136186 -18.22791701 69.54614171 -27 73 C-37.23589888 75.61848576 -49.29782326 74.66666171 -58.61328125 69.5703125 C-60.81573387 68.12123565 -62.91594834 66.61345935 -65 65 C-65.7425 64.505 -66.485 64.01 -67.25 63.5 C-67.8275 63.005 -68.405 62.51 -69 62 C-69 59 -69 59 -67.28515625 57.24609375 C-66.55167969 56.64925781 -65.81820313 56.05242187 -65.0625 55.4375 C-62.07351045 53.08714476 -62.07351045 53.08714476 -60 50 C-55.9632901 51.93425683 -52.23200097 54.29437744 -48.4375 56.66015625 C-42.68255504 59.82353144 -36.41987832 59.46408759 -30 59 C-25.80827105 57.67629612 -24.50887244 56.75510103 -22.0625 53.125 C-20.91068615 50.13154906 -20.91068615 50.13154906 -20.75 47.375 C-22.90460232 43.28125558 -26.77319125 42.44383819 -31 41 C-32.96298911 40.40326792 -34.93090208 39.82481492 -36.89941406 39.24658203 C-53.31841076 34.38805511 -53.31841076 34.38805511 -58.0625 26.625 C-60.22765515 18.25306675 -58.85314941 11.6718957 -55 4 C-50.04695441 -3.17384049 -42.16505095 -6.62968036 -33.9375 -8.8125 C-21.33822718 -9.6167089 -10.03546327 -8.36288606 0 0 Z " fill="#9EC84F" transform="translate(1892,589)"/>
<path d="M0 0 C2.41641568 2.16726548 4.7223331 4.37378566 6.953125 6.73046875 C5.54467782 9.9457118 3.84967714 12.05230743 1.328125 14.48046875 C0.38066406 15.40085937 0.38066406 15.40085937 -0.5859375 16.33984375 C-1.06804687 16.79875 -1.55015625 17.25765625 -2.046875 17.73046875 C-4.51123789 16.56341317 -6.35280348 15.47945051 -8.484375 13.73046875 C-13.77676359 9.59982399 -19.43546379 8.67537366 -26.046875 8.73046875 C-34.98520355 9.91759051 -42.8045415 12.8741133 -48.828125 19.76953125 C-53.87281167 26.76779756 -57.01373895 35.02869319 -56.046875 43.73046875 C-54.62103878 49.69521695 -51.88258987 54.86393724 -47.046875 58.73046875 C-40.28081701 62.18471941 -33.36854135 62.31237622 -26.046875 60.73046875 C-20.67208511 58.96387114 -16.26878296 56.54380497 -12.046875 52.73046875 C-7.7726192 54.31352645 -5.78155706 57.23615279 -3.046875 60.73046875 C-5.55530345 66.94700881 -11.93994173 70.23304348 -17.75390625 73.03515625 C-28.32820532 77.37902123 -39.72486286 78.58340803 -50.703125 74.76953125 C-59.77139144 70.74926646 -66.55288239 64.86188149 -70.421875 55.66796875 C-74.0465299 44.53510013 -72.59259311 33.35942727 -68.046875 22.73046875 C-61.08207058 9.43872566 -50.89436505 0.72622294 -36.8125 -4.4609375 C-24.74447937 -7.98929946 -10.37362764 -7.72702264 0 0 Z " fill="#9EC851" transform="translate(887.046875,586.26953125)"/>
<path d="M0 0 C1.09920273 0.00222061 2.19840546 0.00444122 3.33091736 0.00672913 C4.57212845 0.00680466 5.81333954 0.00688019 7.09216309 0.00695801 C8.45682311 0.01206541 9.82148274 0.01728142 11.18614197 0.02259827 C12.57476755 0.02446251 13.96339379 0.02588638 15.35202026 0.02688599 C19.01319686 0.03071065 22.67433402 0.04054048 26.335495 0.05158997 C30.06890835 0.06180519 33.80232805 0.06638384 37.53575134 0.07142639 C44.86584748 0.08216281 52.19591108 0.0992386 59.52598572 0.12025452 C59.41035966 1.5168956 59.28299372 2.91256651 59.15098572 4.30775452 C59.08137634 5.0850592 59.01176697 5.86236389 58.94004822 6.66322327 C58.52598572 9.12025452 58.52598572 9.12025452 56.52598572 14.12025452 C48.93598572 14.12025452 41.34598572 14.12025452 33.52598572 14.12025452 C33.15086853 16.4547467 32.77575134 18.78923889 32.38926697 21.19447327 C29.22275356 40.85854859 25.96048843 60.50103768 22.52598572 80.12025452 C17.57598572 80.12025452 12.62598572 80.12025452 7.52598572 80.12025452 C9.14089953 68.30010003 11.07129738 56.5416345 13.03990173 44.77601624 C13.59304509 41.46798758 14.14267234 38.15938723 14.69200134 34.85072327 C15.04400661 32.74001144 15.39621276 30.6293331 15.74864197 28.51869202 C15.91219681 27.53331451 16.07575165 26.54793701 16.2442627 25.53269958 C16.3978978 24.6171933 16.5515329 23.70168701 16.70982361 22.75843811 C16.91062279 21.55602982 16.91062279 21.55602982 17.11547852 20.32933044 C17.50324508 18.24262948 18.01122228 16.17930829 18.52598572 14.12025452 C10.93598572 14.12025452 3.34598572 14.12025452 -4.47401428 14.12025452 C-3.5260332 0.17139004 -3.5260332 0.17139004 0 0 Z " fill="#A9CA58" transform="translate(613.4740142822266,581.8797454833984)"/>
<path d="M0 0 C4.95 0 9.9 0 15 0 C13.56636415 12.4523658 11.61208082 24.77100001 9.48608398 37.12280273 C8.93082873 40.35128959 8.38204974 43.58083248 7.83398438 46.81054688 C7.48214689 48.86985595 7.12994707 50.92910316 6.77734375 52.98828125 C6.61378891 53.95067215 6.45023407 54.91306305 6.28172302 55.90461731 C6.12808792 56.79372299 5.97445282 57.68282867 5.81616211 58.59887695 C5.61536293 59.76892021 5.61536293 59.76892021 5.4105072 60.96260071 C5 63 5 63 4 66 C15.88 66 27.76 66 40 66 C39.34 70.62 38.68 75.24 38 80 C21.17 80 4.34 80 -13 80 C-9.55218405 55.86528833 -9.55218405 55.86528833 -7.51953125 44.04296875 C-7.30181564 42.763116 -7.08410004 41.48326324 -6.85978699 40.16462708 C-6.29510375 36.84529135 -5.72715383 33.5265237 -5.15838623 30.20788574 C-4.57291392 26.78803321 -3.99071947 23.36762266 -3.40820312 19.94726562 C-2.27524174 13.29764425 -1.13850448 6.64867455 0 0 Z " fill="#96C74B" transform="translate(1321,582)"/>
<path d="M0 0 C4.95 0 9.9 0 15 0 C11.95540891 18.99244919 8.86951552 37.97751362 5.65286255 56.94168091 C5.3425833 58.77244854 5.0333997 60.60340221 4.72531128 62.43453979 C4.29279762 65.00250024 3.85603415 67.56970032 3.41796875 70.13671875 C3.28904236 70.90586609 3.16011597 71.67501343 3.02728271 72.46746826 C2.11457313 77.77085374 2.11457313 77.77085374 1 80 C-3.62 80 -8.24 80 -13 80 C-12.33053789 71.18305166 -11.02824351 62.55770685 -9.53125 53.84765625 C-9.28812972 52.41569903 -9.04533797 50.983686 -8.80285645 49.55162048 C-8.29773321 46.57360191 -7.78988112 43.59606725 -7.27978516 40.61889648 C-6.62685207 36.80774888 -5.97902383 32.99575615 -5.33298492 29.18343449 C-4.8333307 26.2363961 -4.33194637 23.28965436 -3.8299408 20.34301567 C-3.59041339 18.93687744 -3.35120302 17.53068517 -3.11231995 16.12443733 C-2.7789712 14.16479505 -2.44324924 12.20555692 -2.10742188 10.24633789 C-1.91724487 9.13368057 -1.72706787 8.02102325 -1.53112793 6.87464905 C-1.10458047 4.5660259 -0.56940028 2.27760113 0 0 Z " fill="#9FC94F" transform="translate(1664,582)"/>
<path d="M0 0 C6.41057962 5.34404071 11.49114046 13.50143885 12.65625 21.84765625 C12.97628148 32.60871475 9.41153986 40.91071833 2.25 48.9375 C-0.1171875 50.66796875 -0.1171875 50.66796875 -2.625 52.125 C-3.44742187 52.61355469 -4.26984375 53.10210937 -5.1171875 53.60546875 C-12.90552287 57.54585801 -21.02209837 58.27909828 -29.53515625 56.28515625 C-38.68294609 52.99082081 -45.53167691 46.68479788 -49.75 37.9375 C-52.79834069 30.09124279 -53.05613605 21.59069752 -50.1875 13.625 C-46.22688956 5.0645227 -39.64289313 -1.402818 -30.81640625 -4.80859375 C-20.1680242 -7.91526457 -9.06351138 -6.43706671 0 0 Z M-40.75 8.9375 C-45.24082003 15.92017749 -46.85758397 23.1086047 -45.2890625 31.36328125 C-43.52512727 38.20112431 -40.80651078 43.41754633 -34.6875 47.21875 C-27.4741215 50.93151835 -20.28320397 52.46480393 -12.2734375 50.25390625 C-5.17563499 47.31478184 0.43177409 43.41590199 3.6875 36.3125 C6.22398472 29.01049854 6.52286132 21.40376098 3.75 14.125 C0.4824613 7.80775851 -4.60308074 3.46819972 -11.25 1 C-21.88871196 -1.92791902 -33.44305861 0.27022377 -40.75 8.9375 Z " fill="#5D7885" transform="translate(2004.75,325.0625)"/>
<path d="M0 0 C2.97 -0.0825 5.94 -0.165 9 -0.25 C10.37865234 -0.30462402 10.37865234 -0.30462402 11.78515625 -0.36035156 C17.71231008 -0.43914306 22.09063981 0.59497857 27 4 C29.84541585 6.81154185 30.45060818 8.91130636 30.5 12.875 C30.41125618 16.62442657 29.91963656 18.73793366 27.5 21.625 C26.675 22.40875 25.85 23.1925 25 24 C26.04163008 27.03808774 27.0864595 29.10680291 29.125 31.625 C31 34 31 34 31 37 C27.80272557 37.17762636 25.04284247 37.0459771 22 36 C20.17684176 33.80123739 18.88602657 31.51954428 17.484375 29.03515625 C16.18133236 26.88297359 16.18133236 26.88297359 14.078125 26.18359375 C11.93617816 25.86581621 11.93617816 25.86581621 9 26 C9 29.3 9 32.6 9 36 C6.03 36 3.06 36 0 36 C0 24.12 0 12.24 0 0 Z M9 8 C8.67 11.63 8.34 15.26 8 19 C14.83757756 19.4610899 14.83757756 19.4610899 21 17 C22.08223366 14.08995097 22.08223366 14.08995097 22 11 C20.88979795 9.21192962 20.88979795 9.21192962 19 8 C16.48710325 7.63786432 16.48710325 7.63786432 13.8125 7.8125 C12.224375 7.874375 10.63625 7.93625 9 8 Z " fill="#5D7885" transform="translate(1971,332)"/>
<path d="" fill="#80C342" transform="translate(0,0)"/>
</svg>
